<?xml version="1.0" standalone="no"?>
<!DOCTYPE svg PUBLIC "-//W3C//DTD SVG 20010904//EN"
 "http://www.w3.org/TR/2001/REC-SVG-20010904/DTD/svg10.dtd">
<svg version="1.0" xmlns="http://www.w3.org/2000/svg"
 width="320.000000pt" height="320.000000pt" viewBox="0 0 320.000000 320.000000"
 preserveAspectRatio="xMidYMid meet">
<metadata>
Created by potrace 1.11, written by Peter Selinger 2001-2013
</metadata>
<g transform="translate(0.000000,320.000000) scale(0.100000,-0.100000)"
fill="#000000" stroke="none">
<path d="M1067 3074 c-100 -18 -183 -46 -282 -96 -216 -108 -371 -272 -494
-520 -95 -192 -114 -261 -115 -398 -1 -125 5 -180 33 -280 56 -203 139 -314
305 -409 186 -106 425 -107 583 -1 26 18 113 99 193 179 139 139 165 164 275
256 26 22 96 86 156 143 90 86 114 116 144 178 73 150 105 357 75 488 -27 119
-168 295 -291 363 -58 33 -175 75 -257 94 -72 16 -238 18 -325 3z m327 -115
c154 -57 219 -199 167 -365 -74 -241 -297 -521 -586 -737 -138 -102 -222 -152
-330 -192 -127 -48 -209 -22 -293 94 -38 53 -55 128 -55 247 1 154 43 281 166
498 91 160 241 312 377 381 55 28 188 73 238 81 107 18 132 20 193 18 37 -2
91 -12 123 -25z"/>
<path d="M2348 2035 c-2 -1 -30 -5 -63 -8 -135 -13 -349 -70 -465 -123 -184
-86 -449 -293 -565 -444 -53 -69 -139 -219 -189 -329 -47 -104 -63 -188 -64
-327 -1 -195 49 -312 198 -464 67 -69 101 -95 160 -123 96 -46 217 -84 299
-95 65 -9 260 -8 316 1 17 3 50 8 75 12 167 26 375 111 507 208 122 90 278
265 348 392 101 181 147 463 110 675 -44 251 -108 366 -268 485 -34 25 -69 52
-78 59 -24 20 -120 63 -159 71 -33 7 -157 14 -162 10z m114 -180 c98 -20 137
-49 180 -135 32 -65 32 -231 0 -345 -28 -97 -79 -201 -133 -271 -46 -61 -155
-165 -222 -214 -27 -19 -60 -45 -75 -56 -36 -28 -202 -123 -277 -159 -89 -42
-184 -73 -261 -86 -88 -14 -282 -15 -356 -1 -169 32 -242 142 -214 322 4 24
11 51 16 60 4 8 9 18 10 22 1 4 4 17 7 29 9 34 76 159 138 255 66 104 219 259
341 345 131 94 288 165 488 223 95 28 254 33 358 11z"/>
</g>
</svg>
